HIERARCHY
ROOT Hips
{
  OFFSET -35.2597 29.1586 114.425
  CHANNELS 6 Xposition Yposition Zposition Zrotation Xrotation Yrotation
  JOINT LeftUpLeg
  {
    OFFSET 8.64259 1.95398 -2.38835
    CHANNELS 3 Zrotation Xrotation Yrotation
    JOINT LeftLeg
    {
      OFFSET 43.7702 0 0
      CHANNELS 3 Zrotation Xrotation Yrotation
      JOINT LeftFoot
      {
        OFFSET 40.6238 0 0
        CHANNELS 3 Zrotation Xrotation Yrotation
        JOINT LeftToeBase
        {
          OFFSET 12.7242 0 0
          CHANNELS 3 Zrotation Xrotation Yrotation
          End Site
          {
            OFFSET 0 0 0
          }
        }
      }
    }
  }
  JOINT RightUpLeg
  {
    OFFSET -8.2249 1.95398 -2.59336
    CHANNELS 3 Zrotation Xrotation Yrotation
    JOINT RightLeg
    {
      OFFSET 43.5653 0 0
      CHANNELS 3 Zrotation Xrotation Yrotation
      JOINT RightFoot
      {
        OFFSET 40.6238 0 0
        CHANNELS 3 Zrotation Xrotation Yrotation
        JOINT RightToeBase
        {
          OFFSET 12.7242 0 0
          CHANNELS 3 Zrotation Xrotation Yrotation
          End Site
          {
            OFFSET 0 0 0
          }
        }
      }
    }
  }
  JOINT Spine
  {
    OFFSET 0.165834 0.87714 6.61349
    CHANNELS 3 Zrotation Xrotation Yrotation
    JOINT Spine1
    {
      OFFSET 7.38963 1.71661e-005 0
      CHANNELS 3 Zrotation Xrotation Yrotation
      JOINT Spine2
      {
        OFFSET 11.9445 1.14441e-005 0
        CHANNELS 3 Zrotation Xrotation Yrotation
        JOINT Spine3
        {
          OFFSET 14.7254 4.19617e-005 0
          CHANNELS 3 Zrotation Xrotation Yrotation
          JOINT Spine4
          {
            OFFSET 10.9679 0 0
            CHANNELS 3 Zrotation Xrotation Yrotation
            JOINT RightShoulder
            {
              OFFSET 2.46616 -1.6653 3.69651
              CHANNELS 3 Zrotation Xrotation Yrotation
              JOINT RightArm
              {
                OFFSET 13.0012 0 0
                CHANNELS 3 Zrotation Xrotation Yrotation
                JOINT RightForeArm
                {
                  OFFSET 28.7848 1.62311e-005 0
                  CHANNELS 3 Zrotation Xrotation Yrotation
                  JOINT RightHand
                  {
                    OFFSET 26.5688 1.62095e-005 0
                    CHANNELS 3 Zrotation Xrotation Yrotation
                    End Site
                    {
                      OFFSET 0 0 0
                    }
                  }
                }
              }
            }
            JOINT LeftShoulder
            {
              OFFSET 2.38034 -1.29275 -3.7523
              CHANNELS 3 Zrotation Xrotation Yrotation
              JOINT LeftArm
              {
                OFFSET 16.3182 6.07031e-005 0
                CHANNELS 3 Zrotation Xrotation Yrotation
                JOINT LeftForeArm
                {
                  OFFSET 27.0901 0 0
                  CHANNELS 3 Zrotation Xrotation Yrotation
                  JOINT LeftHand
                  {
                    OFFSET 24.5451 1.51738e-005 0
                    CHANNELS 3 Zrotation Xrotation Yrotation
                    End Site
                    {
                      OFFSET 0 0 0
                    }
                  }
                }
              }
            }
            JOINT Neck
            {
              OFFSET 5.0226 -0.0266342 0
              CHANNELS 3 Zrotation Xrotation Yrotation
              JOINT Head
              {
                OFFSET 6.69364 2.86102e-005 0
                CHANNELS 3 Zrotation Xrotation Yrotation
                End Site
                {
                  OFFSET 0 0 0
                }
              }
            }
          }
        }
      }
    }
  }
}
MOTION
Frames:	6
Frame Time:	0.0416667
-325.586 92.8714 300.097 105.592 67.7075 76.262 -175.859 7.71183 86.7208 -32.6383 27.9477 -0.584235 76.7231 10.7712 -0.25417 18.406 -8.63007 5.12847 163.834 -20.7171 89.7386 -29.9742 3.47204 12.3203 52.5433 4.66481 1.96054 19.945 0.904023 7.62208 -2.36802 6.93976 -89.6683 13.0286 -4.54168 1.21931 1.36484 -4.4836 1.41836 -21.2343 -4.6977 -0.205024 -1.22161 -4.69771 -0.20503 92.3051 -36.9495 -100.175 47.672 0.613669 -20.91 175.358 17.1824 -179.973 4.80718 -3.17968 -65.3671 -87.2019 -63.793 84.9657 -7.3894 -19.3376 1.93338 4.35362 51.1801 -5.43591 14.5302 -1.71764 -15.2888 -0.754812 -0.787669 -2.27469 -7.49179 -0.500034 0.378639 
-324.734 94.7364 298.465 102.484 57.4755 78.3877 -176.003 -1.10734 85.1511 -18.9112 17.6558 -1.3019 73.2816 8.94743 -1.08925 19.04 -8.11313 4.92964 164.351 -4.54093 87.6131 -46.1237 -14.3095 4.6028 62.7571 -1.5107 -2.30757 24.1987 0.302008 4.86823 -1.65134 7.56655 -89.6563 11.7581 -3.12274 1.01338 0.090455 -3.07512 1.14994 -22.4751 -3.28281 0.0270269 -2.46243 -3.28281 0.0270117 90.3543 -35.7369 -104.08 43.968 2.19666 -23.2841 175.347 17.4186 -179.968 -9.55298 6.65175 -71.4665 -86.0809 -61.8094 86.1843 -16.8342 -16.6563 -15.5741 3.18614 32.5248 -4.24728 5.32514 0.15234 -3.08989 2.76273 0.66715 -0.859659 -5.21013 0.820999 -0.380323 
-323.598 95.4909 297.633 98.3366 50.6525 83.6221 -175.972 -3.89635 85.2326 -12.681 9.52638 -0.77247 71.9672 8.38974 -3.26042 19.1961 -8.6339 5.91157 172.491 10.215 86.5856 -46.7798 -7.28402 -0.42023 69.433 -5.13784 0.933969 18.9758 3.95074 1.09592 -1.18185 7.90808 -89.7915 11.0655 -2.25586 0.632022 -0.603742 -2.22585 0.730729 -23.1545 -2.34146 -0.0755396 -3.14186 -2.34145 -0.0755351 87.8263 -36.1317 -108.545 40.6978 3.63748 -25.3207 175.135 31.4909 179.809 -17.3602 13.5025 -88.1532 -86.1177 -57.0053 85.5319 -24.3236 -12.5518 -26.5211 2.92512 26.1241 -3.98329 10.5779 -0.0600269 -7.56929 4.07865 1.67811 -3.69458 -2.69179 2.2784 1.30088 
-320.766 95.0947 295.491 97.0937 45.7529 86.6389 -174.976 -5.62383 86.9262 -13.3786 5.81571 -0.422023 74.9632 9.39338 -2.50609 19.7689 -8.88686 6.83831 177.852 16.3745 92.0279 -32.7495 -3.48356 -1.88381 67.2795 -3.94556 2.79044 20.9216 4.36799 -2.46279 -0.700548 8.02226 -89.9956 10.8307 -1.39291 0.138883 -0.839475 -1.38543 0.200064 -23.3805 -1.37023 -0.286241 -3.36781 -1.37024 -0.286241 87.5309 -36.719 -108.855 44.1222 7.45675 -4.75099 -10.7338 -66.8592 -8.90355 -42.621 22.6639 -43.7067 -86.9385 -55.4512 84.1649 -24.568 -11.4485 -36.7577 3.41565 37.0209 -4.46133 5.93253 -0.907665 -15.2611 3.47037 1.77105 -6.0712 -0.605936 2.77326 2.21583 
-316.583 93.843 291.991 95.4846 43.1423 90.0132 -173.614 -6.93518 89.0446 -16.2881 3.8857 -0.185211 80.2573 10.7989 -3.37298 21.6933 -9.08627 9.11114 179.301 16.1237 95.4034 -8.42747 -9.12053 -0.0259587 60.1693 -2.03944 -3.37079 25.8267 -0.317537 4.88827 -0.330834 8.04694 -90.2384 10.7786 -0.768716 -0.402865 -0.892159 -0.785725 -0.368641 -23.4281 -0.612097 -0.615271 -3.41543 -0.612104 -0.615271 88.167 -37.1367 -107.567 43.6676 8.77848 0.983544 -4.97351 -36.8826 -5.27015 -31.3972 5.6151 -25.3917 -87.044 -53.333 83.6932 -27.1325 -8.61458 -44.2131 3.63979 41.3863 -4.71148 7.46252 -1.19291 -17.1304 4.52847 1.24111 -7.84999 -0.962277 2.61988 1.96567 
-311.209 92.0641 287.219 94.4696 42.5893 91.8473 -171.781 -11.6194 91.1689 -15.2491 3.18085 -0.547332 84.739 13.8378 -4.30416 22.746 -7.93044 8.34063 179.9 21.3248 97.8639 -6.1355 -7.19678 1.03535 65.2082 -3.12068 -1.02705 25.7283 -0.116812 4.37153 -0.273458 7.99063 -90.3961 10.8904 -0.727527 -0.718786 -0.780563 -0.758474 -0.686074 -23.315 -0.477881 -0.904194 -3.30234 -0.477886 -0.904206 87.172 -38.4302 -108.853 41.1771 10.1833 3.46009 -5.01754 -37.6116 -5.29282 -24.3524 3.72232 -22.6473 -87.2233 -53.6244 83.4815 -27.3991 -7.80089 -48.3612 3.9932 46.7623 -5.07359 7.83129 -1.21695 -16.9917 4.24374 1.55129 -8.16186 -0.225043 2.97227 1.39394 
